<?xml version="1.0" encoding="UTF-8"?>
<svg width="189px" height="26px" viewBox="0 0 189 26" version="1.1" xmlns="http://www.w3.org/2000/svg" xmlns:xlink="http://www.w3.org/1999/xlink">
    <!-- Generator: Sketch 49 (51002) - http://www.bohemiancoding.com/sketch -->
    <title>Logo</title>
    <desc>Created with Sketch.</desc>
    <defs></defs>
    <g id="Default" stroke="none" stroke-width="1" fill="none" fill-rule="evenodd">
        <g id="Desktop" transform="translate(-150.000000, -55.000000)" fill="#FFFFFF">
            <g id="Logo" transform="translate(150.000000, 50.000000)">
                <g id="Group" transform="translate(17.381389, 17.559387) rotate(-135.000000) translate(-17.381389, -17.559387) translate(5.216755, 5.394753)" fill-rule="nonzero">
                    <polygon id="Shape" fill="#8E00FE" points="5.99434208 0 5.99434208 9.99047022 13.9868981 9.99047022 13.9868981 17.9830262 23.9773683 17.9830262 23.9773683 0"></polygon>
                    <rect id="Rectangle-path" fill="#FF2033" x="0" y="11.9886842" width="11.9886842" height="11.9886842"></rect>
                </g>
                <path d="M43.1097561,23.4608915 L43.1097561,11.4722074 L45.1307057,11.4722074 L45.1307057,16.8157351 L45.1649591,16.8157351 L49.6350256,11.4722074 L52.0841425,11.4722074 L47.6483294,16.7472284 L52.5636899,23.4608915 L50.1316997,23.4608915 L46.2439407,18.2029972 L46.2096873,18.2029972 L45.1307057,19.5731325 L45.1307057,23.4608915 L43.1097561,23.4608915 Z M59.1060861,20.4465938 L60.5104748,21.5940821 C59.6313002,23.0098957 58.3753554,23.7177919 56.7426026,23.7177919 C55.486639,23.7177919 54.4619022,23.2810656 53.6683615,22.4076 C52.8748208,21.5341343 52.4780564,20.3723854 52.4780564,18.9223182 C52.4780564,17.4722511 52.8719664,16.3105021 53.6597981,15.4370365 C54.4476299,14.5635708 55.4466769,14.1268446 56.6569692,14.1268446 C57.8672614,14.1268446 58.8577452,14.5607164 59.6284502,15.4284731 C60.3991552,16.2962298 60.7845019,17.4608332 60.7845019,18.9223182 L60.7845019,19.5046257 L54.447626,19.5046257 C54.4704617,20.2582039 54.6788343,20.8604866 55.0727502,21.3114917 C55.4666661,21.7624968 56.0118603,21.987996 56.7083493,21.987996 C57.039467,21.987996 57.3363266,21.9423253 57.5989372,21.8509825 C57.8615478,21.7596397 58.0927558,21.6226275 58.2925682,21.4399419 C58.4923806,21.2572563 58.6436649,21.0974087 58.7464256,20.9603945 C58.8491862,20.8233803 58.9690719,20.6521151 59.1060861,20.4465938 Z M54.4647527,18.0317303 L58.8834391,18.0317303 C58.8491855,17.3923306 58.6436673,16.8699717 58.2668782,16.464638 C57.8900891,16.0593042 57.3534581,15.8566404 56.6569692,15.8566404 C56.0061517,15.8566404 55.4866472,16.0735763 55.0984402,16.5074547 C54.7102333,16.9413331 54.4990062,17.4494198 54.4647527,18.0317303 Z M62.5999312,27.3143971 L64.3126004,23.0498509 L60.7845019,14.3837449 L62.8397049,14.3837449 L65.220315,20.6349874 L65.2545684,20.6349874 L67.6351785,14.3837449 L69.6561281,14.3837449 L64.4838673,27.3143971 L62.5999312,27.3143971 Z M71.6567398,23.4608915 L71.6567398,16.0621607 L70.2866045,16.0621607 L70.2866045,14.3837449 L71.6909932,14.3837449 L71.6909932,13.0649897 C71.6909932,12.2885758 71.8822393,11.7433815 72.2647374,11.4293906 C72.6472354,11.1153997 73.2038473,10.9584066 73.9345898,10.9584066 L75.6130056,10.9584066 L75.6130056,12.6882025 L74.3285037,12.6882025 C74.0316396,12.6882025 73.8261213,12.7452909 73.7119428,12.8594694 C73.5977643,12.9736479 73.5406759,13.1905838 73.5406759,13.5102837 L73.5406759,14.3837449 L75.8185259,14.3837449 L75.8185259,16.0621607 L73.592056,16.0621607 L73.592056,23.4608915 L71.6567398,23.4608915 Z M76.8461274,23.4608915 L76.8461274,14.3837449 L78.6958101,14.3837449 L78.6958101,15.3428397 L78.7300635,15.3428397 C78.9127491,15.0003041 79.1753557,14.7262798 79.5178913,14.5207585 C79.8604268,14.3152371 80.2257926,14.212478 80.6139995,14.212478 C80.8766101,14.212478 81.1449256,14.2695664 81.418954,14.3837449 L81.1106736,16.2848077 C80.7795559,16.1934649 80.5397846,16.1477942 80.3913525,16.1477942 C79.3294924,16.1477942 78.7985702,16.9013611 78.7985702,18.4085175 L78.7985702,23.4608915 L76.8461274,23.4608915 Z M87.5674363,23.4608915 L87.5674363,22.5531768 L87.533183,22.5531768 C87.4875116,22.621684 87.4190055,22.7044621 87.3276627,22.8015139 C87.2363199,22.8985656 87.0907444,23.0241601 86.890932,23.1783011 C86.6911196,23.3324421 86.4228041,23.460891 86.0859775,23.5636517 C85.7491509,23.6664123 85.3752219,23.7177919 84.9641792,23.7177919 C83.902319,23.7177919 83.1030814,23.4637485 82.5664424,22.9556541 C82.0298034,22.4475597 81.7614879,21.8167329 81.7614879,21.0631547 C81.7614879,20.2867408 81.9955503,19.690167 82.4636822,19.2734154 C82.9318142,18.8566638 83.7253429,18.511279 84.8442924,18.2372506 C85.8490633,17.9860578 86.5055799,17.7776852 86.8138619,17.6121263 C87.1221439,17.4465675 87.2762826,17.2039418 87.2762826,16.8842419 C87.2762826,16.5759599 87.136416,16.3190621 86.8566786,16.1135408 C86.5769413,15.9080195 86.1630504,15.8052603 85.6149935,15.8052603 C84.9870117,15.8052603 84.52745,15.9479813 84.2362948,16.2334276 C83.9451396,16.5188739 83.7310581,16.907075 83.5940439,17.3980427 L81.9327548,16.7643551 C82.1268583,15.9879412 82.5321859,15.3542599 83.1487499,14.8632923 C83.7653139,14.3723247 84.5702603,14.1268446 85.5636134,14.1268446 C86.6597272,14.1268446 87.5445974,14.4065777 88.2182506,14.9660525 C88.8919039,15.5255272 89.2287254,16.3989797 89.2287254,17.5864363 L89.2287254,23.4608915 L87.5674363,23.4608915 Z M85.2382063,19.6245126 C84.5988066,19.7843625 84.173498,19.9670454 83.9622678,20.1725667 C83.7510375,20.378088 83.645424,20.629277 83.645424,20.9261411 C83.645424,21.6568836 84.1420931,22.0222494 85.1354461,22.0222494 C85.8661886,22.0222494 86.4170917,21.8738196 86.7881719,21.5769554 C87.1592521,21.2800913 87.3447894,20.9204344 87.3447894,20.4979739 L87.3447894,18.6825445 L87.310536,18.6825445 C87.2648646,18.7738873 87.2049217,18.8538111 87.1307057,18.9223182 C87.0564897,18.9908253 86.8623891,19.0878756 86.5483982,19.213472 C86.2344073,19.3390683 85.797681,19.4760805 85.2382063,19.6245126 Z M90.9413946,23.4608915 L90.9413946,14.3837449 L92.7225705,14.3837449 L92.7225705,15.2572062 L92.7568239,15.2572062 C92.9737631,14.9260885 93.2848949,14.6549186 93.6902286,14.4436884 C94.0955623,14.2324581 94.5322886,14.1268446 95.0004205,14.1268446 C95.5142238,14.1268446 95.9766399,14.2438758 96.3876825,14.4779417 C96.7987252,14.7120077 97.1127114,15.0117218 97.3296506,15.377093 L97.363904,15.377093 C97.592261,15.0231397 97.9233737,14.72628 98.3572521,14.4865051 C98.7911304,14.2467302 99.270673,14.1268446 99.7958942,14.1268446 C100.834919,14.1268446 101.659846,14.4122866 102.270701,14.9831791 C102.881556,15.5540717 103.186979,16.3133475 103.186979,17.2610291 L103.186979,23.4608915 L101.388677,23.4608915 L101.388677,17.7063231 C101.388677,16.5188666 100.82921,15.9251472 99.7102607,15.9251472 C99.1622039,15.9251472 98.7426041,16.0764314 98.4514489,16.3790045 C98.1602937,16.6815776 98.0147183,17.0840508 98.0147183,17.5864363 L98.0147183,23.4608915 L96.1992889,23.4608915 L96.1992889,17.7063231 C96.1992889,17.1582662 96.0594224,16.7243944 95.779685,16.4046945 C95.4999476,16.0849947 95.0860567,15.9251472 94.5379998,15.9251472 C93.9785251,15.9251472 93.556071,16.0792859 93.2706247,16.3875679 C92.9851784,16.6958498 92.8424574,17.0954687 92.8424574,17.5864363 L92.8424574,23.4608915 L90.9413946,23.4608915 Z M111.185144,20.4465938 L112.589533,21.5940821 C111.710358,23.0098957 110.454413,23.7177919 108.821661,23.7177919 C107.565697,23.7177919 106.54096,23.2810656 105.74742,22.4076 C104.953879,21.5341343 104.557114,20.3723854 104.557114,18.9223182 C104.557114,17.4722511 104.951024,16.3105021 105.738856,15.4370365 C106.526688,14.5635708 107.525735,14.1268446 108.736027,14.1268446 C109.946319,14.1268446 110.936803,14.5607164 111.707508,15.4284731 C112.478213,16.2962298 112.86356,17.4608332 112.86356,18.9223182 L112.86356,19.5046257 L106.526684,19.5046257 C106.54952,20.2582039 106.757892,20.8604866 107.151808,21.3114917 C107.545724,21.7624968 108.090918,21.987996 108.787407,21.987996 C109.118525,21.987996 109.415385,21.9423253 109.677995,21.8509825 C109.940606,21.7596397 110.171814,21.6226275 110.371626,21.4399419 C110.571439,21.2572563 110.722723,21.0974087 110.825484,20.9603945 C110.928244,20.8233803 111.04813,20.6521151 111.185144,20.4465938 Z M106.543811,18.0317303 L110.962497,18.0317303 C110.928244,17.3923306 110.722725,16.8699717 110.345936,16.464638 C109.969147,16.0593042 109.432516,15.8566404 108.736027,15.8566404 C108.08521,15.8566404 107.565705,16.0735763 107.177498,16.5074547 C106.789291,16.9413331 106.578064,17.4494198 106.543811,18.0317303 Z M118.172834,19.4189923 L120.296544,18.9565716 C120.456394,19.9727604 120.727564,20.7092008 121.110062,21.1659148 C121.49256,21.6226289 122.123387,21.8509825 123.002561,21.8509825 C123.733304,21.8509825 124.304188,21.7054071 124.715231,21.4142519 C125.126273,21.1230966 125.331791,20.7263323 125.331791,20.2239468 C125.331791,19.7215613 125.140545,19.3276513 124.758047,19.0422051 C124.375549,18.7567588 123.51066,18.4085195 122.163353,17.9974769 C120.90739,17.6092699 120.008247,17.1354362 119.4659,16.5759615 C118.923552,16.0164867 118.652382,15.3371348 118.652382,14.5378852 C118.652382,13.624457 119.00633,12.8423459 119.714237,12.1915284 C120.422143,11.5407109 121.381228,11.215307 122.591521,11.215307 C123.721888,11.215307 124.686682,11.4921857 125.485932,12.0459515 C126.285181,12.5997173 126.776142,13.4189359 126.958827,14.5036318 L124.989258,14.9831791 C124.829408,14.3894509 124.566801,13.9270348 124.20143,13.5959171 C123.836059,13.2647994 123.299428,13.0992431 122.591521,13.0992431 C121.940703,13.0992431 121.452597,13.2305464 121.127189,13.493157 C120.80178,13.7557676 120.639078,14.098298 120.639078,14.5207585 C120.639078,14.9089654 120.816052,15.2172428 121.170005,15.4455998 C121.523959,15.6739568 122.357449,16.0107784 123.670502,16.4560746 C125.086316,16.9356244 126.048255,17.4380023 126.55635,17.9632235 C127.064444,18.4884447 127.318488,19.2020497 127.318488,20.1040599 C127.318488,21.1430844 126.927432,22.0051193 126.145309,22.6901904 C125.363186,23.3752615 124.309905,23.7177919 122.985435,23.7177919 C121.603875,23.7177919 120.502068,23.3552805 119.679983,22.630247 C118.857898,21.9052134 118.35552,20.8348059 118.172834,19.4189923 Z M129.202424,20.4294671 L129.202424,16.0621607 L127.832288,16.0621607 L127.832288,14.3837449 L129.253804,14.3837449 L129.253804,12.157275 L131.103487,12.157275 L131.103487,14.3837449 L133.381336,14.3837449 L133.381336,16.0621607 L131.120613,16.0621607 L131.120613,20.2239468 C131.120613,20.7263323 131.197683,21.0774259 131.351824,21.2772383 C131.505965,21.4770507 131.822805,21.5769554 132.302355,21.5769554 L133.021676,21.5769554 L133.021676,23.4608915 L132.148215,23.4608915 C131.052101,23.4608915 130.287116,23.2182658 129.853238,22.7330071 C129.41936,22.2477484 129.202424,21.4799094 129.202424,20.4294671 Z M139.957986,23.4608915 L139.957986,22.5531768 L139.923733,22.5531768 C139.878061,22.621684 139.809555,22.7044621 139.718212,22.8015139 C139.62687,22.8985656 139.481294,23.0241601 139.281482,23.1783011 C139.081669,23.3324421 138.813354,23.460891 138.476527,23.5636517 C138.139701,23.6664123 137.765772,23.7177919 137.354729,23.7177919 C136.292869,23.7177919 135.493631,23.4637485 134.956992,22.9556541 C134.420353,22.4475597 134.152038,21.8167329 134.152038,21.0631547 C134.152038,20.2867408 134.3861,19.690167 134.854232,19.2734154 C135.322364,18.8566638 136.115893,18.511279 137.234842,18.2372506 C138.239613,17.9860578 138.89613,17.7776852 139.204412,17.6121263 C139.512694,17.4465675 139.666832,17.2039418 139.666832,16.8842419 C139.666832,16.5759599 139.526966,16.3190621 139.247228,16.1135408 C138.967491,15.9080195 138.5536,15.8052603 138.005543,15.8052603 C137.377561,15.8052603 136.918,15.9479813 136.626845,16.2334276 C136.335689,16.5188739 136.121608,16.907075 135.984594,17.3980427 L134.323305,16.7643551 C134.517408,15.9879412 134.922736,15.3542599 135.5393,14.8632923 C136.155864,14.3723247 136.96081,14.1268446 137.954163,14.1268446 C139.050277,14.1268446 139.935147,14.4065777 140.6088,14.9660525 C141.282454,15.5255272 141.619275,16.3989797 141.619275,17.5864363 L141.619275,23.4608915 L139.957986,23.4608915 Z M137.628756,19.6245126 C136.989356,19.7843625 136.564048,19.9670454 136.352817,20.1725667 C136.141587,20.378088 136.035974,20.629277 136.035974,20.9261411 C136.035974,21.6568836 136.532643,22.0222494 137.525996,22.0222494 C138.256738,22.0222494 138.807641,21.8738196 139.178722,21.5769554 C139.549802,21.2800913 139.735339,20.9204344 139.735339,20.4979739 L139.735339,18.6825445 L139.701086,18.6825445 C139.655414,18.7738873 139.595471,18.8538111 139.521255,18.9223182 C139.447039,18.9908253 139.252939,19.0878756 138.938948,19.213472 C138.624957,19.3390683 138.188231,19.4760805 137.628756,19.6245126 Z M144.102645,20.4294671 L144.102645,16.0621607 L142.73251,16.0621607 L142.73251,14.3837449 L144.154026,14.3837449 L144.154026,12.157275 L146.003708,12.157275 L146.003708,14.3837449 L148.281558,14.3837449 L148.281558,16.0621607 L146.020835,16.0621607 L146.020835,20.2239468 C146.020835,20.7263323 146.097904,21.0774259 146.252045,21.2772383 C146.406186,21.4770507 146.723027,21.5769554 147.202577,21.5769554 L147.921898,21.5769554 L147.921898,23.4608915 L147.048436,23.4608915 C145.952323,23.4608915 145.187338,23.2182658 144.75346,22.7330071 C144.319581,22.2477484 144.102645,21.4799094 144.102645,20.4294671 Z M149.857214,23.4608915 L149.857214,14.3837449 L151.809657,14.3837449 L151.809657,23.4608915 L149.857214,23.4608915 Z M149.82296,12.8937228 L149.82296,10.9584066 L151.84391,10.9584066 L151.84391,12.8937228 L149.82296,12.8937228 Z M153.214045,20.4294671 L154.995221,20.0012998 C155.155071,21.3828598 155.885803,22.0736295 157.187438,22.0736295 C157.792584,22.0736295 158.263563,21.9680159 158.60039,21.7567857 C158.937217,21.5455554 159.105627,21.2629678 159.105627,20.9090145 C159.105627,20.5664789 158.951489,20.3152899 158.643207,20.15544 C158.334925,19.9955901 157.655573,19.7672365 156.60513,19.4703724 C155.54327,19.1735082 154.769722,18.8224145 154.284464,18.4170808 C153.799205,18.0117471 153.556579,17.4779705 153.556579,16.8157351 C153.556579,16.0849927 153.853439,15.4541658 154.447167,14.9232357 C155.040895,14.3923056 155.85726,14.1268446 156.896284,14.1268446 C158.894408,14.1268446 160.133226,15.0117148 160.612776,16.7814818 L158.968614,17.2610291 C158.626078,16.2562582 157.935309,15.7538803 156.896284,15.7538803 C156.405317,15.7538803 156.022824,15.8509305 155.748796,16.045034 C155.474767,16.2391375 155.337755,16.4674911 155.337755,16.7301017 C155.337755,17.0269658 155.489039,17.252465 155.791613,17.406606 C156.094186,17.560747 156.83348,17.8033727 158.009519,18.1344904 C159.105633,18.4427724 159.856345,18.813847 160.261679,19.2477254 C160.667013,19.6816037 160.869677,20.2467789 160.869677,20.9432678 C160.869677,21.6625925 160.564254,22.304837 159.953399,22.8700206 C159.342544,23.4352043 158.443401,23.7177919 157.255945,23.7177919 C156.011399,23.7177919 155.058023,23.4009513 154.395787,22.7672605 C153.733552,22.1335697 153.339642,21.3543131 153.214045,20.4294671 Z M162.839246,20.4294671 L162.839246,16.0621607 L161.469111,16.0621607 L161.469111,14.3837449 L162.890626,14.3837449 L162.890626,12.157275 L164.740309,12.157275 L164.740309,14.3837449 L167.018159,14.3837449 L167.018159,16.0621607 L164.757436,16.0621607 L164.757436,20.2239468 C164.757436,20.7263323 164.834505,21.0774259 164.988646,21.2772383 C165.142787,21.4770507 165.459628,21.5769554 165.939177,21.5769554 L166.658498,21.5769554 L166.658498,23.4608915 L165.785037,23.4608915 C164.688923,23.4608915 163.923939,23.2182658 163.49006,22.7330071 C163.056182,22.2477484 162.839246,21.4799094 162.839246,20.4294671 Z M168.593815,23.4608915 L168.593815,14.3837449 L170.546257,14.3837449 L170.546257,23.4608915 L168.593815,23.4608915 Z M168.559561,12.8937228 L168.559561,10.9584066 L170.580511,10.9584066 L170.580511,12.8937228 L168.559561,12.8937228 Z M178.150508,19.8471596 L180.085825,20.2582002 C179.903139,21.3543139 179.486394,22.2049311 178.835576,22.8100772 C178.184759,23.4152234 177.322724,23.7177919 176.249446,23.7177919 C175.016318,23.7177919 174.005853,23.2953377 173.218021,22.4504167 C172.43019,21.6054957 172.03628,20.4294746 172.03628,18.9223182 C172.03628,17.4722511 172.433044,16.3105021 173.226585,15.4370365 C174.020125,14.5635708 175.022027,14.1268446 176.232319,14.1268446 C177.271343,14.1268446 178.127669,14.4379763 178.801323,15.0602493 C179.474976,15.6825222 179.868886,16.490323 179.983064,17.4836761 L178.150508,17.7919566 C177.956405,16.5245751 177.322724,15.8908938 176.249446,15.8908938 C175.552957,15.8908938 174.999199,16.1563549 174.588157,16.687285 C174.177114,17.2182151 173.971596,17.9632187 173.971596,18.9223182 C173.971596,19.8814177 174.171405,20.6264214 174.57103,21.1573515 C174.970655,21.6882816 175.530121,21.9537426 176.249446,21.9537426 C177.311306,21.9537426 177.944987,21.2515553 178.150508,19.8471596 Z M180.942159,20.4294671 L182.723335,20.0012998 C182.883185,21.3828598 183.613917,22.0736295 184.915552,22.0736295 C185.520698,22.0736295 185.991677,21.9680159 186.328504,21.7567857 C186.66533,21.5455554 186.833741,21.2629678 186.833741,20.9090145 C186.833741,20.5664789 186.679602,20.3152899 186.37132,20.15544 C186.063038,19.9955901 185.383686,19.7672365 184.333244,19.4703724 C183.271384,19.1735082 182.497836,18.8224145 182.012577,18.4170808 C181.527319,18.0117471 181.284693,17.4779705 181.284693,16.8157351 C181.284693,16.0849927 181.581553,15.4541658 182.175281,14.9232357 C182.769009,14.3923056 183.585373,14.1268446 184.624398,14.1268446 C186.622522,14.1268446 187.86134,15.0117148 188.34089,16.7814818 L186.696728,17.2610291 C186.354192,16.2562582 185.663422,15.7538803 184.624398,15.7538803 C184.13343,15.7538803 183.750938,15.8509305 183.47691,16.045034 C183.202881,16.2391375 183.065869,16.4674911 183.065869,16.7301017 C183.065869,17.0269658 183.217153,17.252465 183.519726,17.406606 C183.822299,17.560747 184.561594,17.8033727 185.737633,18.1344904 C186.833747,18.4427724 187.584459,18.813847 187.989793,19.2477254 C188.395127,19.6816037 188.59779,20.2467789 188.59779,20.9432678 C188.59779,21.6625925 188.292367,22.304837 187.681512,22.8700206 C187.070657,23.4352043 186.171515,23.7177919 184.984058,23.7177919 C183.739513,23.7177919 182.786136,23.4009513 182.123901,22.7672605 C181.461666,22.1335697 181.067756,21.3543131 180.942159,20.4294671 Z" id="Keyframe-Statistics"></path>
            </g>
        </g>
    </g>
</svg>