<?xml version="1.0" encoding="UTF-8"?>
<svg width="640px" height="87px" viewBox="0 0 640 87" version="1.1" xmlns="http://www.w3.org/2000/svg" xmlns:xlink="http://www.w3.org/1999/xlink">
    <!-- Generator: Sketch 49 (51002) - http://www.bohemiancoding.com/sketch -->
    <title>Group 2</title>
    <desc>Created with Sketch.</desc>
    <defs></defs>
    <g id="Brand" stroke="none" stroke-width="1" fill="none" fill-rule="evenodd">
        <g id="C" transform="translate(-320.000000, -296.000000)">
            <g id="Group-2" transform="translate(320.000000, 282.000000)">
                <g id="Group" transform="translate(57.597061, 57.597061) rotate(-135.000000) translate(-57.597061, -57.597061) translate(16.869789, 16.869789)" fill-rule="nonzero">
                    <polygon id="Shape" fill="#8E00FE" points="20.3636364 0 20.3636364 33.9390545 47.5154909 33.9390545 47.5154909 61.0909091 81.4545455 61.0909091 81.4545455 0"></polygon>
                    <rect id="Rectangle-path" fill="#FF2033" x="0" y="40.7272727" width="40.7272727" height="40.7272727"></rect>
                </g>
                <path d="M145,76.8 L145,36.0727273 L151.865455,36.0727273 L151.865455,54.2254545 L151.981818,54.2254545 L167.167273,36.0727273 L175.487273,36.0727273 L160.418182,53.9927273 L177.116364,76.8 L168.854545,76.8 L155.647273,58.9381818 L155.530909,58.9381818 L151.865455,63.5927273 L151.865455,76.8 L145,76.8 Z M199.341818,66.56 L204.112727,70.4581818 C201.126046,75.2679028 196.859422,77.6727273 191.312727,77.6727273 C187.046039,77.6727273 183.564862,76.1891057 180.869091,73.2218182 C178.17332,70.2545306 176.825455,66.3079034 176.825455,61.3818182 C176.825455,56.4557329 178.163623,52.5091057 180.84,49.5418182 C183.516377,46.5745306 186.910282,45.0909091 191.021818,45.0909091 C195.133354,45.0909091 198.498169,46.5648337 201.116364,49.5127273 C203.734559,52.4606208 205.043636,56.4169449 205.043636,61.3818182 L205.043636,63.36 L183.516364,63.36 C183.59394,65.9200128 184.301811,67.9660529 185.64,69.4981818 C186.978189,71.0303107 188.830291,71.7963636 191.196364,71.7963636 C192.321218,71.7963636 193.329693,71.6412137 194.221818,71.3309091 C195.113944,71.0206045 195.899391,70.5551546 196.578182,69.9345455 C197.256973,69.3139363 197.770907,68.7709114 198.12,68.3054545 C198.469093,67.8399977 198.876361,67.2581853 199.341818,66.56 Z M183.574545,58.3563636 L198.585455,58.3563636 C198.46909,56.1842316 197.770915,54.4097039 196.490909,53.0327273 C195.210903,51.6557507 193.387891,50.9672727 191.021818,50.9672727 C188.810898,50.9672727 187.046067,51.7042351 185.727273,53.1781818 C184.408478,54.6521286 183.69091,56.3781719 183.574545,58.3563636 Z M211.210909,89.8909091 L217.029091,75.4036364 L205.043636,45.9636364 L212.025455,45.9636364 L220.112727,67.2 L220.229091,67.2 L228.316364,45.9636364 L235.181818,45.9636364 L217.610909,89.8909091 L211.210909,89.8909091 Z M241.978182,76.8 L241.978182,51.6654545 L237.323636,51.6654545 L237.323636,45.9636364 L242.094545,45.9636364 L242.094545,41.4836364 C242.094545,38.8460474 242.744236,36.9939447 244.043636,35.9272727 C245.343037,34.8606007 247.233927,34.3272727 249.716364,34.3272727 L255.418182,34.3272727 L255.418182,40.2036364 L251.054545,40.2036364 C250.046056,40.2036364 249.347881,40.3975738 248.96,40.7854545 C248.572119,41.1733353 248.378182,41.9102976 248.378182,42.9963636 L248.378182,45.9636364 L256.116364,45.9636364 L256.116364,51.6654545 L248.552727,51.6654545 L248.552727,76.8 L241.978182,76.8 Z M259.607273,76.8 L259.607273,45.9636364 L265.890909,45.9636364 L265.890909,49.2218182 L266.007273,49.2218182 C266.627882,48.058176 267.519994,47.1272762 268.683636,46.4290909 C269.847279,45.7309056 271.088478,45.3818182 272.407273,45.3818182 C273.299398,45.3818182 274.210904,45.5757556 275.141818,45.9636364 L274.094545,52.4218182 C272.969691,52.1115136 272.155154,51.9563636 271.650909,51.9563636 C268.043618,51.9563636 266.24,54.516338 266.24,59.6363636 L266.24,76.8 L259.607273,76.8 Z M296.029091,76.8 L296.029091,73.7163636 L295.912727,73.7163636 C295.757575,73.9490921 295.52485,74.2303014 295.214545,74.56 C294.904241,74.8896986 294.4097,75.316361 293.730909,75.84 C293.052118,76.363639 292.140612,76.7999983 290.996364,77.1490909 C289.852115,77.4981836 288.581825,77.6727273 287.185455,77.6727273 C283.578164,77.6727273 280.863039,76.8097056 279.04,75.0836364 C277.216961,73.3575671 276.305455,71.2145583 276.305455,68.6545455 C276.305455,66.0169565 277.100598,63.9903101 278.690909,62.5745455 C280.28122,61.1587808 282.976951,59.9854592 286.778182,59.0545455 C290.191532,58.2012079 292.421813,57.4933361 293.469091,56.9309091 C294.516369,56.368482 295.04,55.5442479 295.04,54.4581818 C295.04,53.4109039 294.564853,52.5381853 293.614545,51.84 C292.664238,51.1418147 291.258191,50.7927273 289.396364,50.7927273 C287.26302,50.7927273 285.701823,51.2775709 284.712727,52.2472727 C283.723631,53.2169745 282.996366,54.5357492 282.530909,56.2036364 L276.887273,54.0509091 C277.54667,51.4133201 278.923626,49.2606144 281.018182,47.5927273 C283.112738,45.9248401 285.847256,45.0909091 289.221818,45.0909091 C292.945473,45.0909091 295.951504,46.0412026 298.24,47.9418182 C300.528496,49.8424337 301.672727,52.8096768 301.672727,56.8436364 L301.672727,76.8 L296.029091,76.8 Z M288.116364,63.7672727 C285.944232,64.3103057 284.499398,64.9309056 283.781818,65.6290909 C283.064239,66.3272762 282.705455,67.180601 282.705455,68.1890909 C282.705455,70.6715276 284.39271,71.9127273 287.767273,71.9127273 C290.249709,71.9127273 292.121206,71.4084899 293.381818,70.4 C294.642431,69.3915101 295.272727,68.1697041 295.272727,66.7345455 L295.272727,60.5672727 L295.156364,60.5672727 C295.001211,60.8775773 294.797577,61.1490897 294.545455,61.3818182 C294.293332,61.6145466 293.633945,61.9442403 292.567273,62.3709091 C291.500601,62.7975779 290.016979,63.2630278 288.116364,63.7672727 Z M307.490909,76.8 L307.490909,45.9636364 L313.541818,45.9636364 L313.541818,48.9309091 L313.658182,48.9309091 C314.395155,47.806055 315.452114,46.8848521 316.829091,46.1672727 C318.206067,45.4496934 319.689689,45.0909091 321.28,45.0909091 C323.025463,45.0909091 324.596357,45.4884809 325.992727,46.2836364 C327.389098,47.0787919 328.455754,48.0969635 329.192727,49.3381818 L329.309091,49.3381818 C330.084852,48.1357516 331.20969,47.1272768 332.683636,46.3127273 C334.157583,45.4981777 335.786658,45.0909091 337.570909,45.0909091 C341.100624,45.0909091 343.90302,46.0605964 345.978182,48 C348.053344,49.9394036 349.090909,52.5187718 349.090909,55.7381818 L349.090909,76.8 L342.981818,76.8 L342.981818,57.2509091 C342.981818,53.2169495 341.081231,51.2 337.28,51.2 C335.418173,51.2 333.992732,51.7139343 333.003636,52.7418182 C332.014541,53.7697021 331.52,55.1369612 331.52,56.8436364 L331.52,76.8 L325.352727,76.8 L325.352727,57.2509091 C325.352727,55.3890816 324.877581,53.9151569 323.927273,52.8290909 C322.976965,51.7430249 321.570918,51.2 319.709091,51.2 C317.808475,51.2 316.373338,51.7236311 315.403636,52.7709091 C314.433935,53.8181871 313.949091,55.1757492 313.949091,56.8436364 L313.949091,76.8 L307.490909,76.8 Z M376.261818,66.56 L381.032727,70.4581818 C378.046046,75.2679028 373.779422,77.6727273 368.232727,77.6727273 C363.966039,77.6727273 360.484862,76.1891057 357.789091,73.2218182 C355.09332,70.2545306 353.745455,66.3079034 353.745455,61.3818182 C353.745455,56.4557329 355.083623,52.5091057 357.76,49.5418182 C360.436377,46.5745306 363.830282,45.0909091 367.941818,45.0909091 C372.053354,45.0909091 375.418169,46.5648337 378.036364,49.5127273 C380.654559,52.4606208 381.963636,56.4169449 381.963636,61.3818182 L381.963636,63.36 L360.436364,63.36 C360.51394,65.9200128 361.221811,67.9660529 362.56,69.4981818 C363.898189,71.0303107 365.750291,71.7963636 368.116364,71.7963636 C369.241218,71.7963636 370.249693,71.6412137 371.141818,71.3309091 C372.033944,71.0206045 372.819391,70.5551546 373.498182,69.9345455 C374.176973,69.3139363 374.690907,68.7709114 375.04,68.3054545 C375.389093,67.8399977 375.796361,67.2581853 376.261818,66.56 Z M360.494545,58.3563636 L375.505455,58.3563636 C375.38909,56.1842316 374.690915,54.4097039 373.410909,53.0327273 C372.130903,51.6557507 370.307891,50.9672727 367.941818,50.9672727 C365.730898,50.9672727 363.966067,51.7042351 362.647273,53.1781818 C361.328478,54.6521286 360.61091,56.3781719 360.494545,58.3563636 Z M400,63.0690909 L407.214545,61.4981818 C407.757578,64.9503203 408.678781,67.4521135 409.978182,69.0036364 C411.277582,70.5551593 413.420591,71.3309091 416.407273,71.3309091 C418.889709,71.3309091 420.829084,70.8363686 422.225455,69.8472727 C423.621825,68.8581769 424.32,67.5103116 424.32,65.8036364 C424.32,64.0969612 423.67031,62.7587927 422.370909,61.7890909 C421.071509,60.8193891 418.133356,59.6363706 413.556364,58.24 C409.289676,56.9212055 406.235161,55.3115247 404.392727,53.4109091 C402.550294,51.5102935 401.629091,49.2024378 401.629091,46.4872727 C401.629091,43.3842269 402.831503,40.7272838 405.236364,38.5163636 C407.641224,36.3054435 410.899373,35.2 415.010909,35.2 C418.850928,35.2 422.128471,36.1405967 424.843636,38.0218182 C427.558801,39.9030397 429.226664,42.6860422 429.847273,46.3709091 L423.156364,48 C422.613331,45.9830202 421.721218,44.4121268 420.48,43.2872727 C419.238782,42.1624186 417.41577,41.6 415.010909,41.6 C412.799989,41.6 411.141824,42.0460561 410.036364,42.9381818 C408.930904,43.8303075 408.378182,44.9939322 408.378182,46.4290909 C408.378182,47.7478854 408.979388,48.7951476 410.181818,49.5709091 C411.384248,50.3466705 414.215735,51.4909015 418.676364,53.0036364 C423.486085,54.6327354 426.753931,56.339385 428.48,58.1236364 C430.206069,59.9078877 431.069091,62.3321059 431.069091,65.3963636 C431.069091,68.9260783 429.740619,71.8545338 427.083636,74.1818182 C424.426653,76.5091025 420.848507,77.6727273 416.349091,77.6727273 C411.655734,77.6727273 407.912741,76.4412244 405.12,73.9781818 C402.327259,71.5151392 400.620609,67.8788119 400,63.0690909 Z M437.469091,66.5018182 L437.469091,51.6654545 L432.814545,51.6654545 L432.814545,45.9636364 L437.643636,45.9636364 L437.643636,38.4 L443.927273,38.4 L443.927273,45.9636364 L451.665455,45.9636364 L451.665455,51.6654545 L443.985455,51.6654545 L443.985455,65.8036364 C443.985455,67.5103116 444.24727,68.7030269 444.770909,69.3818182 C445.294548,70.0606095 446.370901,70.4 448,70.4 L450.443636,70.4 L450.443636,76.8 L447.476364,76.8 C443.752709,76.8 441.153947,75.9757658 439.68,74.3272727 C438.206053,72.6787796 437.469091,70.0703209 437.469091,66.5018182 Z M474.007273,76.8 L474.007273,73.7163636 L473.890909,73.7163636 C473.735757,73.9490921 473.503032,74.2303014 473.192727,74.56 C472.882423,74.8896986 472.387882,75.316361 471.709091,75.84 C471.0303,76.363639 470.118794,76.7999983 468.974545,77.1490909 C467.830297,77.4981836 466.560007,77.6727273 465.163636,77.6727273 C461.556346,77.6727273 458.841221,76.8097056 457.018182,75.0836364 C455.195142,73.3575671 454.283636,71.2145583 454.283636,68.6545455 C454.283636,66.0169565 455.07878,63.9903101 456.669091,62.5745455 C458.259402,61.1587808 460.955133,59.9854592 464.756364,59.0545455 C468.169714,58.2012079 470.399995,57.4933361 471.447273,56.9309091 C472.494551,56.368482 473.018182,55.5442479 473.018182,54.4581818 C473.018182,53.4109039 472.543035,52.5381853 471.592727,51.84 C470.642419,51.1418147 469.236373,50.7927273 467.374545,50.7927273 C465.241201,50.7927273 463.680005,51.2775709 462.690909,52.2472727 C461.701813,53.2169745 460.974548,54.5357492 460.509091,56.2036364 L454.865455,54.0509091 C455.524852,51.4133201 456.901808,49.2606144 458.996364,47.5927273 C461.09092,45.9248401 463.825438,45.0909091 467.2,45.0909091 C470.923655,45.0909091 473.929686,46.0412026 476.218182,47.9418182 C478.506678,49.8424337 479.650909,52.8096768 479.650909,56.8436364 L479.650909,76.8 L474.007273,76.8 Z M466.094545,63.7672727 C463.922413,64.3103057 462.477579,64.9309056 461.76,65.6290909 C461.042421,66.3272762 460.683636,67.180601 460.683636,68.1890909 C460.683636,70.6715276 462.370892,71.9127273 465.745455,71.9127273 C468.227891,71.9127273 470.099388,71.4084899 471.36,70.4 C472.620612,69.3915101 473.250909,68.1697041 473.250909,66.7345455 L473.250909,60.5672727 L473.134545,60.5672727 C472.979393,60.8775773 472.775759,61.1490897 472.523636,61.3818182 C472.271514,61.6145466 471.612127,61.9442403 470.545455,62.3709091 C469.478783,62.7975779 467.995161,63.2630278 466.094545,63.7672727 Z M488.087273,66.5018182 L488.087273,51.6654545 L483.432727,51.6654545 L483.432727,45.9636364 L488.261818,45.9636364 L488.261818,38.4 L494.545455,38.4 L494.545455,45.9636364 L502.283636,45.9636364 L502.283636,51.6654545 L494.603636,51.6654545 L494.603636,65.8036364 C494.603636,67.5103116 494.865452,68.7030269 495.389091,69.3818182 C495.91273,70.0606095 496.989083,70.4 498.618182,70.4 L501.061818,70.4 L501.061818,76.8 L498.094545,76.8 C494.37089,76.8 491.772129,75.9757658 490.298182,74.3272727 C488.824235,72.6787796 488.087273,70.0703209 488.087273,66.5018182 Z M507.636364,76.8 L507.636364,45.9636364 L514.269091,45.9636364 L514.269091,76.8 L507.636364,76.8 Z M507.52,40.9018182 L507.52,34.3272727 L514.385455,34.3272727 L514.385455,40.9018182 L507.52,40.9018182 Z M519.04,66.5018182 L525.090909,65.0472727 C525.633942,69.7406295 528.116342,72.0872727 532.538182,72.0872727 C534.59395,72.0872727 536.193934,71.7284884 537.338182,71.0109091 C538.48243,70.2933297 539.054545,69.3333393 539.054545,68.1309091 C539.054545,66.9672669 538.530914,66.1139421 537.483636,65.5709091 C536.436358,65.0278761 534.128503,64.2521263 530.56,63.2436364 C526.952709,62.2351465 524.324857,61.0424311 522.676364,59.6654545 C521.027871,58.288478 520.203636,56.4751628 520.203636,54.2254545 C520.203636,51.7430179 521.212111,49.600009 523.229091,47.7963636 C525.246071,45.9927183 528.019376,45.0909091 531.549091,45.0909091 C538.337004,45.0909091 542.545446,48.0969396 544.174545,54.1090909 L538.589091,55.7381818 C537.425449,52.3248314 535.078806,50.6181818 531.549091,50.6181818 C529.881204,50.6181818 528.581823,50.9478755 527.650909,51.6072727 C526.719995,52.26667 526.254545,53.0424198 526.254545,53.9345455 C526.254545,54.9430353 526.76848,55.7090883 527.796364,56.2327273 C528.824248,56.7563663 531.335738,57.5806004 535.330909,58.7054545 C539.054564,59.7527325 541.604842,61.013326 542.981818,62.4872727 C544.358795,63.9612195 545.047273,65.8812003 545.047273,68.2472727 C545.047273,70.6909213 544.009707,72.8727177 541.934545,74.7927273 C539.859384,76.7127369 536.804869,77.6727273 532.770909,77.6727273 C528.543009,77.6727273 525.304254,76.5963744 523.054545,74.4436364 C520.804837,72.2908983 519.466669,69.6436521 519.04,66.5018182 Z M551.738182,66.5018182 L551.738182,51.6654545 L547.083636,51.6654545 L547.083636,45.9636364 L551.912727,45.9636364 L551.912727,38.4 L558.196364,38.4 L558.196364,45.9636364 L565.934545,45.9636364 L565.934545,51.6654545 L558.254545,51.6654545 L558.254545,65.8036364 C558.254545,67.5103116 558.516361,68.7030269 559.04,69.3818182 C559.563639,70.0606095 560.639992,70.4 562.269091,70.4 L564.712727,70.4 L564.712727,76.8 L561.745455,76.8 C558.0218,76.8 555.423038,75.9757658 553.949091,74.3272727 C552.475144,72.6787796 551.738182,70.0703209 551.738182,66.5018182 Z M571.287273,76.8 L571.287273,45.9636364 L577.92,45.9636364 L577.92,76.8 L571.287273,76.8 Z M571.170909,40.9018182 L571.170909,34.3272727 L578.036364,34.3272727 L578.036364,40.9018182 L571.170909,40.9018182 Z M603.752727,64.5236364 L610.327273,65.92 C609.706664,69.643655 608.29092,72.5333231 606.08,74.5890909 C603.86908,76.6448588 600.940624,77.6727273 597.294545,77.6727273 C593.105434,77.6727273 589.672741,76.2375901 586.996364,73.3672727 C584.319987,70.4969553 582.981818,66.5018438 582.981818,61.3818182 C582.981818,56.4557329 584.329683,52.5091057 587.025455,49.5418182 C589.721226,46.5745306 593.124828,45.0909091 597.236364,45.0909091 C600.766078,45.0909091 603.67514,46.1478682 605.963636,48.2618182 C608.252133,50.3757681 609.590301,53.1199831 609.978182,56.4945455 L603.752727,57.5418182 C603.09333,53.2363421 600.940624,51.0836364 597.294545,51.0836364 C594.928473,51.0836364 593.04728,51.9854455 591.650909,53.7890909 C590.254538,55.5927363 589.556364,58.1236201 589.556364,61.3818182 C589.556364,64.6400163 590.235145,67.1709001 591.592727,68.9745455 C592.95031,70.7781908 594.850897,71.68 597.294545,71.68 C600.901836,71.68 603.054542,69.2945693 603.752727,64.5236364 Z M613.236364,66.5018182 L619.287273,65.0472727 C619.830306,69.7406295 622.312705,72.0872727 626.734545,72.0872727 C628.790313,72.0872727 630.390297,71.7284884 631.534545,71.0109091 C632.678794,70.2933297 633.250909,69.3333393 633.250909,68.1309091 C633.250909,66.9672669 632.727278,66.1139421 631.68,65.5709091 C630.632722,65.0278761 628.324866,64.2521263 624.756364,63.2436364 C621.149073,62.2351465 618.52122,61.0424311 616.872727,59.6654545 C615.224234,58.288478 614.4,56.4751628 614.4,54.2254545 C614.4,51.7430179 615.408475,49.600009 617.425455,47.7963636 C619.442434,45.9927183 622.21574,45.0909091 625.745455,45.0909091 C632.533367,45.0909091 636.74181,48.0969396 638.370909,54.1090909 L632.785455,55.7381818 C631.621812,52.3248314 629.275169,50.6181818 625.745455,50.6181818 C624.077567,50.6181818 622.778186,50.9478755 621.847273,51.6072727 C620.916359,52.26667 620.450909,53.0424198 620.450909,53.9345455 C620.450909,54.9430353 620.964843,55.7090883 621.992727,56.2327273 C623.020611,56.7563663 625.532101,57.5806004 629.527273,58.7054545 C633.250928,59.7527325 635.801205,61.013326 637.178182,62.4872727 C638.555158,63.9612195 639.243636,65.8812003 639.243636,68.2472727 C639.243636,70.6909213 638.206071,72.8727177 636.130909,74.7927273 C634.055747,76.7127369 631.001232,77.6727273 626.967273,77.6727273 C622.739373,77.6727273 619.500617,76.5963744 617.250909,74.4436364 C615.001201,72.2908983 613.663032,69.6436521 613.236364,66.5018182 Z" id="Keyframe-Statistics" fill="#434343"></path>
            </g>
        </g>
    </g>
</svg>